<svg id="box-arrow-left" xmlns="http://www.w3.org/2000/svg" width="26.133" height="16.633" viewBox="0 0 26.133 16.633">
  <path id="Path_6" data-name="Path 6" d="M25.125,160.261a1.188,1.188,0,0,0,0-1.682l-6.289-6.286,6.289-6.285a1.189,1.189,0,1,0-1.682-1.682l-7.127,7.127a1.188,1.188,0,0,0,0,1.682l7.127,7.127a1.188,1.188,0,0,0,1.682,0Z" transform="translate(-15.967 -143.977)" fill="#fff" fill-rule="evenodd"/>
  <path id="Path_7" data-name="Path 7" d="M71.755,241.188A1.188,1.188,0,0,0,70.568,240H49.188a1.188,1.188,0,1,0,0,2.376h21.38A1.188,1.188,0,0,0,71.755,241.188Z" transform="translate(-45.622 -232.872)" fill="#fff" fill-rule="evenodd"/>
</svg>
