<svg xmlns="http://www.w3.org/2000/svg" xmlns:xlink="http://www.w3.org/1999/xlink" width="390" height="150" viewBox="0 0 390 150">
  <defs>
    <clipPath id="clip-path">
      <rect id="Rectangle_378" data-name="Rectangle 378" width="390" height="150" transform="translate(558)" fill="none" stroke="#707070" stroke-width="1"/>
    </clipPath>
    <clipPath id="clip-path-2">
      <rect id="andreas-gucklhorn-Ilpf2eUPpUE-unsplash" width="390" height="188" transform="translate(0 152.918)" opacity="0.4"/>
    </clipPath>
  </defs>
  <g id="Mask_Group_2" data-name="Mask Group 2" transform="translate(-558)" clip-path="url(#clip-path)">
    <g id="Mask_Group_1" data-name="Mask Group 1" transform="translate(563 -169.918)" clip-path="url(#clip-path-2)">
      <g id="FalconEngineering-Horizontal-Logo-Tagline-RGB-Reverse" transform="translate(-0.139 178.708)">
        <text id="FALCON" transform="translate(117.231 59)" fill="#fff" font-size="56" font-family="Poppins-SemiBold, Poppins" font-weight="600" letter-spacing="0.14em"><tspan x="0" y="0">FALCON</tspan></text>
        <text id="ENGINEERING" transform="translate(117.996 95.427)" fill="#90bd3e" font-size="34" font-family="Poppins-Light, Poppins" font-weight="300" letter-spacing="0.14em"><tspan x="0" y="0">ENGINEERING</tspan></text>
        <path id="Path_104" data-name="Path 104" d="M235.535,331.144a5.072,5.072,0,0,0-7.177,0L185.5,374l.9.9a8.867,8.867,0,0,0,12.543,0l36.59-36.59a5.068,5.068,0,0,0,0-7.173Z" transform="translate(-157.035 -275.591)" fill="#90bd3e"/>
        <path id="Path_105" data-name="Path 105" d="M141.69,282a24.03,24.03,0,1,0-33.984-33.984h0l-55.487,55.5.908.908a8.862,8.862,0,0,0,12.538,0L114.79,255.27h0A13.89,13.89,0,1,1,134.4,274.941l-28.237,28.24.9.9a8.867,8.867,0,0,0,12.543,0L141.6,282.1h0l.094-.094Z" transform="translate(-50.77 -204.884)" fill="#fff"/>
        <path id="Path_106" data-name="Path 106" d="M227.846,104.251l-.293-.191c-.5-.318-1-.627-1.518-.92s-.932-.493-1.4-.729-.9-.44-1.356-.643c-.692-.309-1.4-.59-2.109-.851-.09-.033-.281-.1-.285-.1A32.022,32.022,0,0,0,210.2,98.975h-.338a31.033,31.033,0,0,0-14.216,3.452h-.041c-.407.216-.814.448-1.221.68-.3.167-.6.338-.9.517l-.134.073c-.171.11-.354.212-.525.322s-.228.163-.346.24a32.739,32.739,0,0,0-6.57,5.7l-33.5,33.5,3.574,3.57a5.1,5.1,0,0,0,7.21,0l34.07-34.07a19.4,19.4,0,0,1,5.516-3.257,22.9,22.9,0,0,1,5.04-1.107,22.659,22.659,0,0,1,3.4,0,32.336,32.336,0,0,0-6.514,12.115,32.194,32.194,0,0,1,9.3,1.942,22.98,22.98,0,0,1,17.582-15.6,32.036,32.036,0,0,0-3.749-2.8Z" transform="translate(-130.661 -91.668)" fill="#fff"/>
        <text id="INGENUITY_DELIVERED" data-name="INGENUITY DELIVERED" transform="translate(0 127.86)" fill="#fff" font-size="21" font-family="Poppins-Medium, Poppins" font-weight="500" letter-spacing="0.4em"><tspan x="0" y="0">INGENUITY DELIVERED</tspan></text>
      </g>
    </g>
  </g>
</svg>
