<svg xmlns="http://www.w3.org/2000/svg" xmlns:xlink="http://www.w3.org/1999/xlink" width="390" height="150" viewBox="0 0 390 150">
  <defs>
    <clipPath id="clip-path">
      <rect id="Rectangle_378" data-name="Rectangle 378" width="390" height="150" transform="translate(558)" fill="none" stroke="#707070" stroke-width="1"/>
    </clipPath>
    <clipPath id="clip-path-2">
      <rect id="andreas-gucklhorn-Ilpf2eUPpUE-unsplash" width="390" height="188" transform="translate(0 152.918)" opacity="0.4"/>
    </clipPath>
  </defs>
  <g id="Mask_Group_2" data-name="Mask Group 2" transform="translate(-558)" clip-path="url(#clip-path)">
    <g id="Mask_Group_1" data-name="Mask Group 1" transform="translate(563 -169.918)" clip-path="url(#clip-path-2)">
      <g id="FalconEngineering-Horizontal-Logo-Tagline-RGB-Reverse" transform="translate(-0.139 178.708)">
        <path id="FALCON" d="M3.864,0H11.7V-16.52H24.192v-6.216H11.7V-32.76H28v-6.328H3.864ZM67.928,0h8.288L62.16-39.144H53.032L38.976,0h8.232l2.576-7.448H65.352Zm-4.7-13.72H51.912l5.656-16.352Zm26.1-25.368V0h20.72V-6.216H97.16V-39.088ZM120.96-19.6c0,11.7,8.568,19.936,19.824,19.936,8.68,0,15.736-4.592,18.368-12.656h-9.016a9.814,9.814,0,0,1-9.408,5.656c-6.832,0-11.7-5.04-11.7-12.936,0-7.952,4.872-12.936,11.7-12.936a9.855,9.855,0,0,1,9.408,5.6h9.016c-2.632-8.008-9.688-12.656-18.368-12.656C129.528-39.592,120.96-31.3,120.96-19.6Zm90.888-.056c0-11.7-8.848-19.992-19.992-19.992a19.632,19.632,0,0,0-20.048,19.992A19.646,19.646,0,0,0,191.856.392,19.567,19.567,0,0,0,211.848-19.656Zm-31.976,0c0-7.952,4.872-12.936,11.984-12.936,7.056,0,11.928,4.984,11.928,12.936S198.912-6.608,191.856-6.608C184.744-6.608,179.872-11.7,179.872-19.656ZM251.1-39.144v26.88l-17.752-26.88h-7.84V0h7.84V-26.824L251.1,0h7.84V-39.144Z" transform="translate(117.231 59)" fill="#fff"/>
        <path id="ENGINEERING" d="M5.1-21.828v8.874h9.01v1.972H5.1v9.01H15.13V0H2.72V-23.8H15.13v1.972ZM42.5,0H40.12L26.962-19.992V0h-2.38V-23.766h2.38L40.12-3.808V-23.766H42.5ZM71.366-16.83a8.129,8.129,0,0,0-3.111-3.689,8.892,8.892,0,0,0-4.913-1.343,9.3,9.3,0,0,0-4.76,1.224,8.742,8.742,0,0,0-3.332,3.485A10.865,10.865,0,0,0,54.026-11.9,10.964,10.964,0,0,0,55.25-6.63a8.716,8.716,0,0,0,3.332,3.5A9.3,9.3,0,0,0,63.342-1.9a9.278,9.278,0,0,0,4.471-1.071,8.281,8.281,0,0,0,3.2-3.06,10.043,10.043,0,0,0,1.377-4.641h-10v-1.938H74.9v1.734a12.035,12.035,0,0,1-1.7,5.661,11.169,11.169,0,0,1-4.1,4A11.437,11.437,0,0,1,63.342.238a11.773,11.773,0,0,1-5.984-1.547,11.154,11.154,0,0,1-4.233-4.318A12.647,12.647,0,0,1,51.578-11.9a12.647,12.647,0,0,1,1.547-6.273,11.154,11.154,0,0,1,4.233-4.318,11.773,11.773,0,0,1,5.984-1.547,11.732,11.732,0,0,1,6.664,1.9,10.793,10.793,0,0,1,4.148,5.3Zm15.028-6.936V0h-2.38V-23.766ZM114.478,0H112.1L98.94-19.992V0H96.56V-23.766h2.38L112.1-3.808V-23.766h2.38Zm12.546-21.828v8.874h9.01v1.972h-9.01v9.01h10.03V0h-12.41V-23.8h12.41v1.972Zm21.862,0v8.874h9.01v1.972h-9.01v9.01h10.03V0h-12.41V-23.8h12.41v1.972ZM181.016,0l-5.882-9.928h-4.386V0h-2.38V-23.766h7.14q3.978,0,6.035,1.9a6.491,6.491,0,0,1,2.057,5,6.756,6.756,0,0,1-1.479,4.4,7.079,7.079,0,0,1-4.369,2.363L183.872,0ZM170.748-11.866h4.794a5.831,5.831,0,0,0,4.2-1.36,4.819,4.819,0,0,0,1.411-3.638,4.722,4.722,0,0,0-1.36-3.621,6.107,6.107,0,0,0-4.284-1.275h-4.76Zm24.718-11.9V0h-2.38V-23.766ZM223.55,0h-2.38L208.012-19.992V0h-2.38V-23.766h2.38L221.17-3.808V-23.766h2.38Zm28.866-16.83a8.129,8.129,0,0,0-3.111-3.689,8.892,8.892,0,0,0-4.913-1.343,9.3,9.3,0,0,0-4.76,1.224,8.742,8.742,0,0,0-3.332,3.485,10.865,10.865,0,0,0-1.224,5.253A10.964,10.964,0,0,0,236.3-6.63a8.716,8.716,0,0,0,3.332,3.5,9.3,9.3,0,0,0,4.76,1.224,9.278,9.278,0,0,0,4.471-1.071,8.281,8.281,0,0,0,3.2-3.06,10.043,10.043,0,0,0,1.377-4.641h-10v-1.938h12.512v1.734a12.035,12.035,0,0,1-1.7,5.661,11.169,11.169,0,0,1-4.1,4A11.437,11.437,0,0,1,244.392.238a11.773,11.773,0,0,1-5.984-1.547,11.154,11.154,0,0,1-4.233-4.318,12.647,12.647,0,0,1-1.547-6.273,12.647,12.647,0,0,1,1.547-6.273,11.154,11.154,0,0,1,4.233-4.318,11.773,11.773,0,0,1,5.984-1.547,11.732,11.732,0,0,1,6.664,1.9,10.793,10.793,0,0,1,4.148,5.3Z" transform="translate(117.996 95.427)" fill="#90bd3e"/>
        <path id="Path_104" data-name="Path 104" d="M235.535,331.144a5.072,5.072,0,0,0-7.177,0L185.5,374l.9.9a8.867,8.867,0,0,0,12.543,0l36.59-36.59a5.068,5.068,0,0,0,0-7.173Z" transform="translate(-157.035 -275.591)" fill="#90bd3e"/>
        <path id="Path_105" data-name="Path 105" d="M141.69,282a24.03,24.03,0,1,0-33.984-33.984h0l-55.487,55.5.908.908a8.862,8.862,0,0,0,12.538,0L114.79,255.27h0A13.889,13.889,0,1,1,134.4,274.942l-28.238,28.239.9.9a8.867,8.867,0,0,0,12.543,0L141.6,282.1h0l.094-.094Z" transform="translate(-50.77 -204.884)" fill="#fff"/>
        <path id="Path_106" data-name="Path 106" d="M227.846,104.251l-.293-.191c-.5-.318-1-.627-1.518-.92s-.932-.493-1.4-.729-.9-.44-1.356-.643c-.692-.309-1.4-.59-2.109-.851-.09-.033-.281-.1-.285-.1A32.022,32.022,0,0,0,210.2,98.975h-.338a31.033,31.033,0,0,0-14.216,3.452H195.6c-.407.216-.814.448-1.221.68-.3.167-.6.338-.9.517l-.134.073c-.171.11-.354.212-.525.322s-.228.163-.346.24a32.739,32.739,0,0,0-6.57,5.7l-33.5,33.5,3.574,3.57a5.1,5.1,0,0,0,7.21,0l34.07-34.07a19.4,19.4,0,0,1,5.516-3.257,22.9,22.9,0,0,1,5.04-1.107,22.66,22.66,0,0,1,3.4,0,32.336,32.336,0,0,0-6.514,12.115,32.194,32.194,0,0,1,9.3,1.942,22.98,22.98,0,0,1,17.582-15.6,32.035,32.035,0,0,0-3.749-2.8Z" transform="translate(-130.661 -91.668)" fill="#fff"/>
        <path id="INGENUITY_DELIVERED" data-name="INGENUITY DELIVERED" d="M3.969-14.6V0H1.575V-14.6ZM27.51,0H25.116l-7.2-10.9V0H15.519V-14.616h2.394l7.2,10.878V-14.616H27.51ZM49.623-10.4a3.858,3.858,0,0,0-1.575-1.648,4.744,4.744,0,0,0-2.331-.557,5.094,5.094,0,0,0-2.583.651A4.562,4.562,0,0,0,41.36-10.1a5.787,5.787,0,0,0-.64,2.772,5.849,5.849,0,0,0,.64,2.782,4.546,4.546,0,0,0,1.774,1.859,5.094,5.094,0,0,0,2.583.651,4.57,4.57,0,0,0,3.171-1.092A4.746,4.746,0,0,0,50.379-6.09H44.9V-8h8.043v1.869A7.185,7.185,0,0,1,51.734-3,7.183,7.183,0,0,1,49.193-.725a7.157,7.157,0,0,1-3.476.851A7.543,7.543,0,0,1,41.958-.83a7.124,7.124,0,0,1-2.7-2.656,7.454,7.454,0,0,1-1-3.843,7.454,7.454,0,0,1,1-3.843,7.1,7.1,0,0,1,2.709-2.657,7.56,7.56,0,0,1,3.748-.955,7.615,7.615,0,0,1,4.148,1.144A6.517,6.517,0,0,1,52.5-10.4Zm16.464-2.268v4.284h5.04v1.953h-5.04v4.473h5.67V0H63.693V-14.616h8.064v1.953ZM95.088,0H92.694l-7.2-10.9V0H83.1V-14.616h2.394l7.2,10.878V-14.616h2.394Zm13.923-14.6v9.3a3.317,3.317,0,0,0,.871,2.5,3.351,3.351,0,0,0,2.426.84,3.381,3.381,0,0,0,2.446-.84,3.317,3.317,0,0,0,.872-2.5v-9.3h2.394v9.261a5.582,5.582,0,0,1-.777,3.024,4.822,4.822,0,0,1-2.079,1.848,6.706,6.706,0,0,1-2.877.609,6.637,6.637,0,0,1-2.867-.609,4.706,4.706,0,0,1-2.048-1.848,5.7,5.7,0,0,1-.756-3.024V-14.6Zm22.911,0V0h-2.394V-14.6Zm20.979,0v1.953h-3.885V0h-2.394V-12.642h-3.906V-14.6Zm21.63,0-4.83,9.3V0h-2.394V-5.292l-4.851-9.3h2.667L168.5-7.434l3.381-7.161Zm28.917,0a8.889,8.889,0,0,1,4.085.893,6.385,6.385,0,0,1,2.709,2.562,7.706,7.706,0,0,1,.956,3.9,7.533,7.533,0,0,1-.956,3.864,6.31,6.31,0,0,1-2.709,2.51A9.068,9.068,0,0,1,203.448,0h-4.767V-14.6Zm0,12.642a5.268,5.268,0,0,0,3.927-1.386,5.329,5.329,0,0,0,1.365-3.906,5.51,5.51,0,0,0-1.365-3.969,5.178,5.178,0,0,0-3.927-1.428h-2.373V-1.953Zm20.916-10.71v4.284h5.04v1.953h-5.04v4.473h5.67V0H221.97V-14.616h8.064v1.953Zm19.4,10.731H248.7V0h-7.329V-14.6h2.394ZM261.492-14.6V0H259.1V-14.6Zm24.129,0L280.14,0h-2.772l-5.5-14.6h2.562l4.326,12.138L283.1-14.6Zm12.789,1.932v4.284h5.04v1.953h-5.04v4.473h5.67V0h-8.064V-14.616h8.064v1.953ZM323,0l-3.36-5.838h-1.827V0H315.42V-14.6h5.04a6.267,6.267,0,0,1,2.846.588,4.079,4.079,0,0,1,1.743,1.575,4.285,4.285,0,0,1,.578,2.205,4.37,4.37,0,0,1-.829,2.593,4.21,4.21,0,0,1-2.552,1.586L325.857,0Zm-5.187-7.749h2.646a2.776,2.776,0,0,0,2.027-.672,2.42,2.42,0,0,0,.682-1.806A2.335,2.335,0,0,0,322.5-12a2.855,2.855,0,0,0-2.037-.641h-2.646Zm21.672-4.914v4.284h5.04v1.953h-5.04v4.473h5.67V0h-8.064V-14.616h8.064v1.953ZM361.263-14.6a8.889,8.889,0,0,1,4.085.893,6.385,6.385,0,0,1,2.709,2.562,7.706,7.706,0,0,1,.956,3.9,7.533,7.533,0,0,1-.956,3.864,6.31,6.31,0,0,1-2.709,2.51A9.068,9.068,0,0,1,361.263,0H356.5V-14.6Zm0,12.642a5.268,5.268,0,0,0,3.927-1.386,5.329,5.329,0,0,0,1.365-3.906,5.51,5.51,0,0,0-1.365-3.969,5.178,5.178,0,0,0-3.927-1.428H358.89V-1.953Z" transform="translate(0 127.86)" fill="#fff"/>
      </g>
    </g>
  </g>
</svg>
