<svg xmlns="http://www.w3.org/2000/svg" xmlns:xlink="http://www.w3.org/1999/xlink" width="390" height="150" viewBox="0 0 390 150">
  <defs>
    <clipPath id="clip-path">
      <rect id="Rectangle_378" data-name="Rectangle 378" width="390" height="150" transform="translate(501 54)" fill="none" stroke="#707070" stroke-width="1"/>
    </clipPath>
  </defs>
  <g id="Mask_Group_1" data-name="Mask Group 1" transform="translate(-501 -54)" clip-path="url(#clip-path)">
    <g id="Group_140" data-name="Group 140" transform="translate(453.42 -403.002)">
      <path id="Path_124" data-name="Path 124" d="M130.97,496.268h21.888v5.738H138.081V511.1h11.325v5.637H138.081v14.983H130.97Z" transform="translate(47.676 5.205)" fill="#fff"/>
      <path id="Path_125" data-name="Path 125" d="M172.286,524.984H158.168l-2.336,6.755h-7.466l12.747-35.5h8.279l12.746,35.5h-7.515Zm-7.059-20.517L160.1,519.3h10.259Z" transform="translate(62.128 5.182)" fill="#fff"/>
      <path id="Path_126" data-name="Path 126" d="M180.418,496.268V526.08H192.1v5.637H173.309V496.268Z" transform="translate(82.849 5.205)" fill="#fff"/>
      <path id="Path_127" data-name="Path 127" d="M206.964,496.019c7.87,0,14.271,4.212,16.658,11.477h-8.178a8.935,8.935,0,0,0-8.531-5.078c-6.2,0-10.615,4.518-10.615,11.731,0,7.16,4.419,11.731,10.615,11.731a8.9,8.9,0,0,0,8.531-5.13h8.178c-2.387,7.312-8.788,11.477-16.658,11.477-10.208,0-17.98-7.464-17.98-18.079S196.756,496.019,206.964,496.019Z" transform="translate(95.871 4.999)" fill="#fff"/>
      <path id="Path_128" data-name="Path 128" d="M232.358,532.3a18.156,18.156,0,1,1,18.13-18.181A17.815,17.815,0,0,1,232.358,532.3Zm0-6.349c6.4,0,10.818-4.621,10.818-11.832s-4.418-11.731-10.818-11.731c-6.45,0-10.869,4.52-10.869,11.731S225.908,525.954,232.358,525.954Z" transform="translate(116.8 4.974)" fill="#fff"/>
      <path id="Path_129" data-name="Path 129" d="M271.1,496.24v35.5h-7.111l-16.1-24.327V531.74h-7.111v-35.5h7.111l16.1,24.378V496.24Z" transform="translate(138.903 5.182)" fill="#fff"/>
      <path id="Path_130" data-name="Path 130" d="M132.973,522.8v8.156h8.282v1.812h-8.282v8.28h9.22v1.814H130.787V520.986h11.405V522.8Z" transform="translate(47.524 25.74)" fill="#7eaf00"/>
      <path id="Path_131" data-name="Path 131" d="M158.231,542.847h-2.188L143.95,524.47v18.377h-2.188V521h2.188l12.094,18.342V521h2.188Z" transform="translate(56.642 25.754)" fill="#7eaf00"/>
      <path id="Path_132" data-name="Path 132" d="M173.5,527.491a7.487,7.487,0,0,0-2.861-3.391,8.171,8.171,0,0,0-4.515-1.234,8.565,8.565,0,0,0-4.375,1.124,8.02,8.02,0,0,0-3.061,3.2,10.949,10.949,0,0,0,0,9.672,8,8,0,0,0,3.061,3.218,9.066,9.066,0,0,0,8.486.141,7.611,7.611,0,0,0,2.937-2.814,9.224,9.224,0,0,0,1.267-4.264h-9.188v-1.781h11.5v1.595a11.054,11.054,0,0,1-1.563,5.2,10.262,10.262,0,0,1-3.766,3.672,10.5,10.5,0,0,1-5.3,1.344,10.815,10.815,0,0,1-5.5-1.422,10.225,10.225,0,0,1-3.89-3.969,12.394,12.394,0,0,1,0-11.53,10.251,10.251,0,0,1,3.89-3.969,11.475,11.475,0,0,1,11.625.328,9.948,9.948,0,0,1,3.812,4.875Z" transform="translate(67.901 25.64)" fill="#7eaf00"/>
      <path id="Path_133" data-name="Path 133" d="M173.786,521v21.844H171.6V521Z" transform="translate(81.429 25.754)" fill="#7eaf00"/>
      <path id="Path_134" data-name="Path 134" d="M194.367,542.847H192.18L180.086,524.47v18.377H177.9V521h2.188l12.094,18.342V521h2.188Z" transform="translate(86.661 25.754)" fill="#7eaf00"/>
      <path id="Path_135" data-name="Path 135" d="M194.185,522.8v8.156h8.28v1.812h-8.28v8.28h9.22v1.814H192V520.986H203.4V522.8Z" transform="translate(98.374 25.74)" fill="#7eaf00"/>
      <path id="Path_136" data-name="Path 136" d="M205.159,522.8v8.156h8.282v1.812h-8.282v8.28h9.22v1.814H202.973V520.986h11.406V522.8Z" transform="translate(107.492 25.74)" fill="#7eaf00"/>
      <path id="Path_137" data-name="Path 137" d="M225.573,542.847l-5.406-9.126h-4.031v9.126h-2.188V521h6.563a7.882,7.882,0,0,1,5.545,1.75,5.966,5.966,0,0,1,1.891,4.594,6.212,6.212,0,0,1-1.358,4.048,6.517,6.517,0,0,1-4.017,2.171l5.626,9.282Zm-9.437-10.906h4.407a5.36,5.36,0,0,0,3.859-1.25,4.433,4.433,0,0,0,1.3-3.345,4.342,4.342,0,0,0-1.249-3.328,5.624,5.624,0,0,0-3.938-1.172h-4.375Z" transform="translate(116.61 25.754)" fill="#7eaf00"/>
      <path id="Path_138" data-name="Path 138" d="M228.546,521v21.844h-2.188V521Z" transform="translate(126.919 25.754)" fill="#7eaf00"/>
      <path id="Path_139" data-name="Path 139" d="M249.125,542.847h-2.188L234.844,524.47v18.377h-2.188V521h2.188l12.094,18.342V521h2.188Z" transform="translate(132.151 25.754)" fill="#7eaf00"/>
      <path id="Path_140" data-name="Path 140" d="M264.4,527.491a7.5,7.5,0,0,0-2.86-3.391,8.182,8.182,0,0,0-4.516-1.234,8.57,8.57,0,0,0-4.375,1.124,8.033,8.033,0,0,0-3.061,3.2,10.948,10.948,0,0,0,0,9.672,8.015,8.015,0,0,0,3.061,3.218,9.066,9.066,0,0,0,8.486.141,7.611,7.611,0,0,0,2.936-2.814,9.225,9.225,0,0,0,1.267-4.264h-9.189v-1.781h11.5v1.595a11.054,11.054,0,0,1-1.563,5.2,10.262,10.262,0,0,1-3.766,3.672,10.5,10.5,0,0,1-5.3,1.344,10.815,10.815,0,0,1-5.5-1.422,10.226,10.226,0,0,1-3.89-3.969,12.393,12.393,0,0,1,0-11.53,10.251,10.251,0,0,1,3.89-3.969,11.475,11.475,0,0,1,11.625.328,9.937,9.937,0,0,1,3.812,4.875Z" transform="translate(143.41 25.64)" fill="#7eaf00"/>
      <path id="Path_141" data-name="Path 141" d="M130.413,513.7a4.452,4.452,0,0,0-6.294,0L86.53,551.293l.795.8a7.776,7.776,0,0,0,11,0L130.413,520A4.452,4.452,0,0,0,130.413,513.7Z" transform="translate(10.758 18.608)" fill="#7eaf00"/>
      <path id="Path_142" data-name="Path 142" d="M152.068,539.734a21.077,21.077,0,0,0-29.806-29.808l-.005,0L73.58,558.6l.795.794a7.775,7.775,0,0,0,11,0l43.1-43.1h0a12.182,12.182,0,1,1,17.2,17.251L120.91,558.311l.795.8a7.779,7.779,0,0,0,11,0l19.287-19.287h0l0,0,.081-.081Z" transform="translate(0 11.49)" fill="#fff"/>
      <path id="Path_143" data-name="Path 143" d="M149.469,494.628s-.168-.11-.256-.167c-.439-.278-.879-.553-1.333-.807-.4-.225-.817-.432-1.228-.639-.394-.2-.787-.388-1.19-.566q-.909-.4-1.847-.745c-.081-.029-.245-.09-.251-.086A28.067,28.067,0,0,0,134,490l-.289,0a27.238,27.238,0,0,0-12.467,3.026l-.035.016c-.368.19-.729.392-1.087.6-.264.147-.525.295-.784.452-.038.022-.079.042-.117.066-.154.1-.311.183-.463.282-.1.066-.2.141-.3.211a28.652,28.652,0,0,0-5.763,4.992L83.319,529.013l3.132,3.132a4.471,4.471,0,0,0,6.323,0l29.88-29.88a17.1,17.1,0,0,1,4.84-2.858,19.93,19.93,0,0,1,4.412-.97,19.125,19.125,0,0,1,2.98-.016,28.359,28.359,0,0,0-5.717,10.624,28.172,28.172,0,0,1,8.152,1.7,20.154,20.154,0,0,1,15.422-13.683A28.294,28.294,0,0,0,149.469,494.628Z" transform="translate(8.091 0)" fill="#fff"/>
    </g>
  </g>
</svg>
