<svg xmlns="http://www.w3.org/2000/svg" xmlns:xlink="http://www.w3.org/1999/xlink" width="390" height="150" viewBox="0 0 390 150">
  <defs>
    <clipPath id="clip-path">
      <rect id="Rectangle_378" data-name="Rectangle 378" width="390" height="150" transform="translate(554)" fill="none" stroke="#707070" stroke-width="1"/>
    </clipPath>
  </defs>
  <g id="Mask_Group_1" data-name="Mask Group 1" transform="translate(-554)" clip-path="url(#clip-path)">
    <g id="FalconEngineering-Horizontal-Logo-Tagline-RGB-Reverse_1_" data-name="FalconEngineering-Horizontal-Logo-Tagline-RGB-Reverse (1)" transform="translate(555 -26.28)">
      <path id="Path_104" data-name="Path 104" d="M320.23,81.39h21.407V87H327.184v8.891h11.077v5.512H327.184v14.662H320.23Z" transform="translate(-191.515 -20.901)" fill="#fff"/>
      <path id="Path_105" data-name="Path 105" d="M432.823,109.363H419.016l-2.287,6.6h-7.3L421.9,81.25h8.1l12.452,34.718h-7.331Zm-6.9-20.066L420.9,103.8h10.019Z" transform="translate(-249.576 -20.809)" fill="#fff"/>
      <path id="Path_106" data-name="Path 106" d="M544.281,81.39v29.157h11.436v5.512H537.33V81.39Z" transform="translate(-332.827 -20.901)" fill="#fff"/>
      <path id="Path_107" data-name="Path 107" d="M635.291,80.11c7.68,0,13.964,4.123,16.292,11.227h-8a8.746,8.746,0,0,0-8.343-4.982c-6.06,0-10.382,4.42-10.382,11.471s4.322,11.475,10.382,11.475a8.7,8.7,0,0,0,8.343-5.017h8c-2.335,7.153-8.595,11.223-16.292,11.223-9.984,0-17.58-7.3-17.58-17.682S625.306,80.11,635.291,80.11Z" transform="translate(-385.146 -20.067)" fill="#fff"/>
      <path id="Path_108" data-name="Path 108" d="M764.663,115.5a17.752,17.752,0,1,1,17.731-17.772A17.433,17.433,0,0,1,764.663,115.5Zm0-6.21c6.256,0,10.578-4.517,10.578-11.573s-4.322-11.471-10.578-11.471c-6.308,0-10.63,4.42-10.63,11.471S758.355,109.293,764.663,109.293Z" transform="translate(-469.224 -19.996)" fill="#fff"/>
      <path id="Path_109" data-name="Path 109" d="M912.962,81.25v34.718h-6.954L890.264,92.177v23.791H883.31V81.25h6.954l15.744,23.84V81.25Z" transform="translate(-558.026 -20.809)" fill="#fff"/>
      <path id="Path_110" data-name="Path 110" d="M330.44,209.923h-9.014V217.9h8.1v1.773h-8.1v8.1h9.014v1.773H319.29V208.15h11.15Z" transform="translate(-190.904 -103.409)" fill="#90bd3e"/>
      <path id="Path_111" data-name="Path 111" d="M391.67,208.24V229.6h-2.14l-11.824-17.951v17.968H375.57V208.24h2.136l11.824,17.937V208.24Z" transform="translate(-227.536 -103.468)" fill="#90bd3e"/>
      <path id="Path_112" data-name="Path 112" d="M465.349,213.97h-2.507a7.537,7.537,0,0,0-7.212-4.538c-4.734,0-8.378,3.421-8.378,8.951s3.638,8.986,8.378,8.986c4.493,0,7.792-3.027,8.13-7.886h-8.986v-1.745H466.02v1.557a10.259,10.259,0,0,1-10.389,9.991c-5.987,0-10.571-4.493-10.571-10.909s4.584-10.906,10.571-10.906A9.959,9.959,0,0,1,465.349,213.97Z" transform="translate(-272.768 -102.966)" fill="#90bd3e"/>
      <path id="Path_113" data-name="Path 113" d="M528.56,208.24h2.14V229.6h-2.14Z" transform="translate(-327.118 -103.468)" fill="#90bd3e"/>
      <path id="Path_114" data-name="Path 114" d="M576.98,208.24V229.6h-2.136l-11.827-17.951v17.968H560.88V208.24h2.136l11.827,17.937V208.24Z" transform="translate(-348.155 -103.468)" fill="#90bd3e"/>
      <path id="Path_115" data-name="Path 115" d="M644.271,209.923h-9.014V217.9h8.1v1.773h-8.1v8.1h9.014v1.773H633.1V208.15h11.171Z" transform="translate(-395.164 -103.409)" fill="#90bd3e"/>
      <path id="Path_116" data-name="Path 116" d="M700.551,209.923h-9.014V217.9h8.1v1.773h-8.1v8.1h9.014v1.773H689.38V208.15h11.171Z" transform="translate(-431.797 -103.409)" fill="#90bd3e"/>
      <path id="Path_117" data-name="Path 117" d="M752.126,208.24c4.95,0,7.272,2.688,7.272,6.2a5.89,5.89,0,0,1-5.236,6.078l5.5,9.077h-2.566l-5.285-8.923H747.85V229.6h-2.14V208.24Zm0,1.8H747.85v8.892h4.308c3.491,0,5.041-1.892,5.041-4.489C757.2,211.752,755.732,210.041,752.126,210.041Z" transform="translate(-468.462 -103.468)" fill="#90bd3e"/>
      <path id="Path_118" data-name="Path 118" d="M809.34,208.24h2.14V229.6h-2.14Z" transform="translate(-509.879 -103.468)" fill="#90bd3e"/>
      <path id="Path_119" data-name="Path 119" d="M857.74,208.24V229.6H855.6l-11.824-17.951v17.968H841.64V208.24h2.136L855.6,226.177V208.24Z" transform="translate(-530.903 -103.468)" fill="#90bd3e"/>
      <path id="Path_120" data-name="Path 120" d="M931.445,213.97h-2.507a7.537,7.537,0,0,0-7.212-4.538c-4.734,0-8.378,3.421-8.378,8.951s3.638,8.986,8.378,8.986c4.493,0,7.792-3.027,8.13-7.886h-8.972v-1.745H932.13v1.557a10.259,10.259,0,0,1-10.389,9.991c-5.987,0-10.571-4.493-10.571-10.909s4.584-10.906,10.571-10.906A9.954,9.954,0,0,1,931.445,213.97Z" transform="translate(-576.16 -102.966)" fill="#90bd3e"/>
      <path id="Path_121" data-name="Path 121" d="M135.267,165.412a4.35,4.35,0,0,0-6.155,0L92.36,202.165l.775.775a7.6,7.6,0,0,0,10.756,0l31.377-31.377a4.346,4.346,0,0,0,0-6.151Z" transform="translate(-43.194 -74.76)" fill="#90bd3e"/>
      <path id="Path_122" data-name="Path 122" d="M102.724,155.159a20.607,20.607,0,0,0-29.143-29.143h0L26,173.605l.778.778a7.6,7.6,0,0,0,10.752,0l42.125-42.143h0a11.911,11.911,0,1,1,16.82,16.869L72.262,173.326l.775.775a7.6,7.6,0,0,0,10.756,0l18.851-18.851h0l.08-.08Z" transform="translate(0 -46.019)" fill="#fff"/>
      <path id="Path_123" data-name="Path 123" d="M140.571,53.8l-.251-.164c-.429-.272-.859-.538-1.3-.789s-.8-.422-1.2-.625-.771-.377-1.162-.552c-.593-.265-1.2-.506-1.808-.73-.077-.028-.241-.087-.244-.084a27.46,27.46,0,0,0-9.16-1.581h-.29a26.612,26.612,0,0,0-12.19,2.96h-.035c-.349.185-.7.384-1.047.583-.258.143-.517.29-.768.443L111,53.33c-.147.094-.3.182-.45.276s-.2.14-.3.206a28.074,28.074,0,0,0-5.634,4.887L75.89,87.426l3.065,3.062a4.371,4.371,0,0,0,6.183,0l29.216-29.216a16.638,16.638,0,0,1,4.73-2.793,19.636,19.636,0,0,1,4.322-.95,19.432,19.432,0,0,1,2.915,0,27.729,27.729,0,0,0-5.586,10.389,27.606,27.606,0,0,1,7.973,1.665A19.706,19.706,0,0,1,143.786,56.2a27.471,27.471,0,0,0-3.215-2.4Z" transform="translate(-32.474)" fill="#fff"/>
      <path id="Path_124" data-name="Path 124" d="M26.49,310.11h2.147v13.1H26.49Z" transform="translate(-0.319 -169.775)" fill="#fff"/>
      <path id="Path_125" data-name="Path 125" d="M73.093,310.021v13.116h-2.15l-6.465-9.775v9.775H62.33V310.021h2.147l6.465,9.754V310Z" transform="translate(-23.647 -169.704)" fill="#fff"/>
      <path id="Path_126" data-name="Path 126" d="M133.309,313.591h-2.58a3.717,3.717,0,0,0-3.491-1.979,4.748,4.748,0,0,0,0,9.481,3.978,3.978,0,0,0,4.189-3.638h-4.94v-1.718h7.219v1.679a6.462,6.462,0,0,1-6.469,5.631,6.692,6.692,0,1,1,0-13.381A6.206,6.206,0,0,1,133.309,313.591Z" transform="translate(-61.441 -169.486)" fill="#fff"/>
      <path id="Path_127" data-name="Path 127" d="M193.4,311.812H188.31v3.84h4.538V317.4H188.31v4.015H193.4v1.746H186.16v-13.1H193.4Z" transform="translate(-104.249 -169.743)" fill="#fff"/>
      <path id="Path_128" data-name="Path 128" d="M246.777,310.06v13.116H244.63l-6.465-9.775v9.775H236V310.06h2.15l6.465,9.775V310.06Z" transform="translate(-136.69 -169.743)" fill="#fff"/>
      <path id="Path_129" data-name="Path 129" d="M296.5,310.11h2.15v8.34a2.967,2.967,0,1,0,5.935,0v-8.34h2.15v8.312c0,3.337-2.412,4.919-5.146,4.919s-5.09-1.581-5.09-4.919Z" transform="translate(-176.069 -169.775)" fill="#fff"/>
      <path id="Path_130" data-name="Path 130" d="M355.4,310.11h2.147v13.1H355.4Z" transform="translate(-214.408 -169.775)" fill="#fff"/>
      <path id="Path_131" data-name="Path 131" d="M389.3,310.11h9.139v1.745h-3.491V323.2H392.8V311.855H389.31Z" transform="translate(-236.473 -169.775)" fill="#fff"/>
      <path id="Path_132" data-name="Path 132" d="M440,310.11h2.395l3.034,6.427,3.034-6.427h2.374l-4.318,8.34V323.2h-2.15V318.45Z" transform="translate(-269.474 -169.775)" fill="#fff"/>
      <path id="Path_133" data-name="Path 133" d="M544.394,316.7c0,4.032-2.754,6.5-6.954,6.5h-4.28V310.11h4.28C541.64,310.11,544.394,312.655,544.394,316.7Zm-6.954,4.748c3.089,0,4.748-1.77,4.748-4.748s-1.658-4.845-4.748-4.845H535.31v9.593Z" transform="translate(-330.112 -169.775)" fill="#fff"/>
      <path id="Path_134" data-name="Path 134" d="M600.247,311.812h-5.09v3.84H599.7V317.4h-4.538v4.015h5.09v1.746H593v-13.1h7.237Z" transform="translate(-369.062 -169.743)" fill="#fff"/>
      <path id="Path_135" data-name="Path 135" d="M645.057,310.11v11.367h4.43v1.745H642.91V310.11Z" transform="translate(-401.549 -169.775)" fill="#fff"/>
      <path id="Path_136" data-name="Path 136" d="M688.47,310.11h2.147v13.1H688.47Z" transform="translate(-431.204 -169.775)" fill="#fff"/>
      <path id="Path_137" data-name="Path 137" d="M731.372,310.11h2.262l-4.919,13.1h-2.489l-4.936-13.1h2.3l3.885,10.9Z" transform="translate(-452.567 -169.775)" fill="#fff"/>
      <path id="Path_138" data-name="Path 138" d="M790.607,311.812h-5.09v3.84h4.538V317.4h-4.538v4.015h5.09v1.746H783.37v-13.1h7.237Z" transform="translate(-492.975 -169.743)" fill="#fff"/>
      <path id="Path_139" data-name="Path 139" d="M837.771,310.11c3.11,0,4.636,1.791,4.636,3.92a3.729,3.729,0,0,1-3.034,3.753l3.243,5.425h-2.562l-3.016-5.236H835.4v5.236H833.25v-13.1Zm0,1.745H835.4v4.392h2.374c1.679,0,2.444-.922,2.444-2.224s-.768-2.161-2.444-2.161Z" transform="translate(-525.442 -169.775)" fill="#fff"/>
      <path id="Path_140" data-name="Path 140" d="M896.223,311.812h-5.09v3.84h4.538V317.4h-4.538v4.015h5.09v1.746H889v-13.1h7.237Z" transform="translate(-561.73 -169.743)" fill="#fff"/>
      <path id="Path_141" data-name="Path 141" d="M950.067,316.7c0,4.032-2.751,6.5-6.954,6.5H938.84V310.11h4.276C947.32,310.11,950.067,312.655,950.067,316.7Zm-6.954,4.748c3.089,0,4.751-1.77,4.751-4.748s-1.662-4.845-4.751-4.845H940.99v9.593Z" transform="translate(-594.171 -169.775)" fill="#fff"/>
    </g>
  </g>
</svg>
