<svg id="box-arrow-left" xmlns="http://www.w3.org/2000/svg" width="37.997" height="24.184" viewBox="0 0 37.997 24.184">
  <path id="Path_6" data-name="Path 6" d="M29.283,167.653a1.727,1.727,0,0,0,0-2.446l-9.143-9.139,9.143-9.139a1.729,1.729,0,0,0-2.446-2.446L16.475,154.845a1.727,1.727,0,0,0,0,2.446l10.362,10.362a1.727,1.727,0,0,0,2.446,0Z" transform="translate(-15.967 -143.977)" fill="#9bc44f" fill-rule="evenodd"/>
  <path id="Path_7" data-name="Path 7" d="M82.54,241.727A1.727,1.727,0,0,0,80.813,240H49.727a1.727,1.727,0,1,0,0,3.454H80.813A1.727,1.727,0,0,0,82.54,241.727Z" transform="translate(-44.543 -229.636)" fill="#9bc44f" fill-rule="evenodd"/>
</svg>
