<svg id="gear" xmlns="http://www.w3.org/2000/svg" width="59.992" height="60.002" viewBox="0 0 59.992 60.002">
  <path id="Path_12" data-name="Path 12" d="M57.923,27.57l-4.65-.389a21.681,21.681,0,0,0-2.826-6.806L53.47,16.8a4.445,4.445,0,0,0-6.264-6.264l-3.573,3.023a21.643,21.643,0,0,0-6.814-2.834l-.389-4.65a4.445,4.445,0,0,0-8.86,0l-.389,4.65a21.681,21.681,0,0,0-6.806,2.826L16.8,10.536A4.445,4.445,0,0,0,10.536,16.8l3.023,3.573a21.661,21.661,0,0,0-2.834,6.807l-4.655.39a4.446,4.446,0,0,0,.007,8.86l4.657.389a21.657,21.657,0,0,0,2.826,6.806L10.536,47.2A4.445,4.445,0,0,0,16.8,53.464l3.573-3.023a21.661,21.661,0,0,0,6.807,2.834l.389,4.657a4.446,4.446,0,0,0,8.86-.009l.389-4.657a21.657,21.657,0,0,0,6.806-2.826L47.2,53.464A4.445,4.445,0,0,0,53.464,47.2l-3.023-3.573a21.638,21.638,0,0,0,2.834-6.807l4.657-.389a4.446,4.446,0,0,0-.009-8.86ZM32,43A11,11,0,1,1,43,32,11,11,0,0,1,32,43Z" transform="translate(-2.004 -1.995)" fill="#fff"/>
</svg>
