<svg id="gear" xmlns="http://www.w3.org/2000/svg" width="80.489" height="80.502" viewBox="0 0 80.489 80.502">
  <path id="Path_12" data-name="Path 12" d="M77.028,36.308l-6.239-.522A29.089,29.089,0,0,0,67,26.655l4.056-4.8a5.964,5.964,0,0,0-8.4-8.4L57.856,17.51a29.037,29.037,0,0,0-9.142-3.8l-.522-6.239a5.964,5.964,0,0,0-11.887,0l-.522,6.239A29.088,29.088,0,0,0,26.652,17.5l-4.8-4.045a5.964,5.964,0,0,0-8.4,8.4l4.056,4.794a29.062,29.062,0,0,0-3.8,9.133l-6.245.523A5.965,5.965,0,0,0,7.468,48.2l6.248.522a29.056,29.056,0,0,0,3.792,9.131l-4.057,4.8a5.964,5.964,0,0,0,8.4,8.4l4.794-4.056a29.061,29.061,0,0,0,9.133,3.8l.522,6.248a5.965,5.965,0,0,0,11.887-.012l.522-6.248a29.057,29.057,0,0,0,9.131-3.792l4.8,4.057a5.964,5.964,0,0,0,8.4-8.4L66.99,57.851a29.031,29.031,0,0,0,3.8-9.133L77.04,48.2a5.965,5.965,0,0,0-.012-11.887Zm-34.78,20.7A14.758,14.758,0,1,1,57.007,42.252,14.758,14.758,0,0,1,42.248,57.01Z" transform="translate(-2.004 -1.995)" fill="#1d576f"/>
</svg>
