<svg xmlns="http://www.w3.org/2000/svg" width="19.678" height="15.027" viewBox="0 0 19.678 15.027">
  <g id="email" opacity="0.8">
    <g id="Group_2" data-name="Group 2" transform="translate(0 0)">
      <path id="Path_2" data-name="Path 2" d="M18.909,69.378a.769.769,0,0,0,.769-.769V63.575A3.078,3.078,0,0,0,16.6,60.5H3.075A3.078,3.078,0,0,0,0,63.575v8.878a3.078,3.078,0,0,0,3.075,3.075H16.6a3.078,3.078,0,0,0,3.075-3.075.769.769,0,1,0-1.537,0A1.539,1.539,0,0,1,16.6,73.99H3.075a1.539,1.539,0,0,1-1.537-1.537V63.738L8.215,67.89a3.056,3.056,0,0,0,3.247,0l6.678-4.153v4.872A.769.769,0,0,0,18.909,69.378Zm-8.258-2.794a1.528,1.528,0,0,1-1.624,0L2.179,62.326a1.529,1.529,0,0,1,.9-.289H16.6a1.529,1.529,0,0,1,.9.289Z" transform="translate(0 -60.5)" fill="#fff"/>
    </g>
  </g>
</svg>
