<svg xmlns="http://www.w3.org/2000/svg" width="19.678" height="19.678" viewBox="0 0 19.678 19.678">
  <g id="phone-call" opacity="0.8">
    <path id="Path_1" data-name="Path 1" d="M19.676,15.857a2.911,2.911,0,0,0-.893-2,7.149,7.149,0,0,0-2.831-1.881A3.168,3.168,0,0,0,12.7,12.9l0,0-1.039,1.031A15.574,15.574,0,0,1,8.379,11.4l-.1-.1A15.576,15.576,0,0,1,5.744,8.023L6.775,6.984l0,0A3.168,3.168,0,0,0,7.7,3.727,7.15,7.15,0,0,0,5.822.9,2.925,2.925,0,0,0,1.763.75L1.741.77,1.711.8A6.237,6.237,0,0,0,0,5.366c.016,3.16,1.753,6.774,4.646,9.667a18.735,18.735,0,0,0,1.843,1.6.769.769,0,0,0,.935-1.22,17.212,17.212,0,0,1-1.691-1.472c-2.613-2.613-4.182-5.824-4.2-8.588A4.749,4.749,0,0,1,2.784,1.9l.006-.005a1.383,1.383,0,0,1,1.926.069C6.706,4.027,6.562,5,5.682,5.9L4.257,7.339a.769.769,0,0,0-.157.854,15.532,15.532,0,0,0,3.091,4.194l.1.1a15.53,15.53,0,0,0,4.194,3.09.769.769,0,0,0,.854-.157L13.776,14c.9-.879,1.876-1.023,3.94.967a1.383,1.383,0,0,1,.07,1.926l-.005.006a4.735,4.735,0,0,1-3.424,1.247h-.035a9.967,9.967,0,0,1-3.793-.9.769.769,0,0,0-.609,1.412,11.34,11.34,0,0,0,4.394,1.024h.043a6.223,6.223,0,0,0,4.525-1.711l.028-.03.02-.022A2.911,2.911,0,0,0,19.676,15.857Z" transform="translate(0 -0.002)" fill="#fff"/>
  </g>
</svg>
