<svg xmlns="http://www.w3.org/2000/svg" xmlns:xlink="http://www.w3.org/1999/xlink" width="66" height="64" viewBox="0 0 66 64">
  <defs>
    <clipPath id="clip-path">
      <rect id="Rectangle_381" data-name="Rectangle 381" width="66" height="64" transform="translate(80 3390)" fill="none" stroke="#707070" stroke-width="1"/>
    </clipPath>
  </defs>
  <g id="Mask_Group_2" data-name="Mask Group 2" transform="translate(-80 -3390)" opacity="0.03" clip-path="url(#clip-path)">
    <g id="Group_137" data-name="Group 137" transform="translate(2 -2.586)">
      <path id="Path_13" data-name="Path 13" d="M285.731,369.72a3.176,3.176,0,0,0-4.492,0l-26.828,26.828.568.567a5.548,5.548,0,0,0,7.849,0l22.9-22.9A3.176,3.176,0,0,0,285.731,369.72Z" transform="translate(-158.492 3055.063)" fill="#fff"/>
      <path id="Path_14" data-name="Path 14" d="M295.585,384.592a15.042,15.042,0,0,0-21.271-21.273l0,0L239.57,398.056l.568.567a5.549,5.549,0,0,0,7.849,0l30.761-30.76h0a8.694,8.694,0,1,1,12.277,12.312L273.349,397.85l.567.568a5.551,5.551,0,0,0,7.849,0l13.764-13.765h0l.058-.058Z" transform="translate(-160.57 3053.688)" fill="#fff"/>
      <path id="Path_15" data-name="Path 15" d="M297.943,346.419s-.12-.079-.182-.119c-.314-.2-.628-.394-.952-.576-.287-.162-.581-.309-.877-.457s-.561-.276-.848-.4c-.433-.193-.872-.37-1.32-.532-.057-.021-.174-.064-.178-.062a20.046,20.046,0,0,0-6.685-1.154l-.209,0a19.445,19.445,0,0,0-8.9,2.159l-.024.013c-.262.135-.52.278-.776.425-.188.1-.375.211-.56.321-.026.017-.056.032-.083.049-.109.067-.222.13-.329.2-.074.048-.144.1-.217.15A20.393,20.393,0,0,0,271.692,350L250.733,370.96l2.236,2.236a3.191,3.191,0,0,0,4.512,0l21.325-21.325a12.184,12.184,0,0,1,3.454-2.039,14.22,14.22,0,0,1,3.149-.692,13.716,13.716,0,0,1,2.127-.013,20.237,20.237,0,0,0-4.08,7.583,20.073,20.073,0,0,1,5.817,1.214,14.384,14.384,0,0,1,11.007-9.765A20.337,20.337,0,0,0,297.943,346.419Z" transform="translate(-159.007 3051.468)" fill="#fff"/>
    </g>
  </g>
</svg>
