<svg xmlns="http://www.w3.org/2000/svg" width="15.757" height="19.678" viewBox="0 0 15.757 19.678">
  <g id="pin" opacity="0.8">
    <g id="Group_4" data-name="Group 4" transform="translate(3.075 3.075)">
      <g id="Group_3" data-name="Group 3" transform="translate(0)">
        <path id="Path_3" data-name="Path 3" d="M135.8,80a4.8,4.8,0,1,0,1.318,9.425.769.769,0,1,0-.421-1.479,3.263,3.263,0,1,1,2.233-2.2.769.769,0,0,0,1.473.442A4.807,4.807,0,0,0,135.8,80Z" transform="translate(-131 -80)" fill="#fff"/>
      </g>
    </g>
    <g id="Group_6" data-name="Group 6" transform="translate(0)">
      <g id="Group_5" data-name="Group 5" transform="translate(0)">
        <path id="Path_4" data-name="Path 4" d="M64.45,2.3A7.879,7.879,0,0,0,51,7.871a8.233,8.233,0,0,0,1.3,4.394,23.4,23.4,0,0,0,2.78,3.45A26.238,26.238,0,0,1,58,19.32a.769.769,0,0,0,.65.358h.461a.769.769,0,0,0,.65-.358,26.238,26.238,0,0,1,2.918-3.606,23.4,23.4,0,0,0,2.78-3.45,8.234,8.234,0,0,0,1.3-4.4A7.828,7.828,0,0,0,64.45,2.3ZM61.545,14.678a31.682,31.682,0,0,0-2.663,3.191,31.675,31.675,0,0,0-2.663-3.191c-1.972-2.16-3.676-4.025-3.678-6.806a6.341,6.341,0,0,1,12.683,0C65.22,10.652,63.517,12.518,61.545,14.678Z" transform="translate(-51.003)" fill="#fff"/>
      </g>
    </g>
  </g>
</svg>
